<mxfile host="app.diagrams.net" modified="2022-03-09T20:35:09.478Z" agent="5.0 (Windows NT 10.0; Win64; x64) AppleWebKit/537.36 (KHTML, like Gecko) Chrome/99.0.4844.51 Safari/537.36" etag="gZMe7eQ7qC-mzQk7H98Q" version="17.1.0" type="github">
  <diagram id="THVYblgwUWbqTCRoEVQK" name="Diagrama de Clases">
    <mxGraphModel dx="1863" dy="319" grid="0" gridSize="10" guides="1" tooltips="1" connect="1" arrows="1" fold="1" page="0" pageScale="1" pageWidth="827" pageHeight="1169" math="0" shadow="0">
      <root>
        <mxCell id="0" />
        <mxCell id="1" parent="0" />
        <mxCell id="4wmMbY1-laPKdsbc8wJT-2" value="OrdenDeProduccion" style="swimlane;fontStyle=1;align=center;verticalAlign=top;childLayout=stackLayout;horizontal=1;startSize=22;horizontalStack=0;resizeParent=1;resizeParentMax=0;resizeLast=0;collapsible=1;marginBottom=0;fontFamily=Helvetica;fontSize=12;fontColor=default;fillColor=none;gradientColor=none;html=1;" vertex="1" parent="1">
          <mxGeometry x="804" y="629.5" width="142" height="115" as="geometry" />
        </mxCell>
        <mxCell id="4wmMbY1-laPKdsbc8wJT-3" value="numero: int&lt;br&gt;horaDeInicio&lt;br&gt;fechaDeInicio" style="text;strokeColor=none;fillColor=none;align=left;verticalAlign=top;spacingLeft=4;spacingRight=4;overflow=hidden;rotatable=0;points=[[0,0.5],[1,0.5]];portConstraint=eastwest;fontFamily=Helvetica;fontSize=12;fontColor=default;html=1;" vertex="1" parent="4wmMbY1-laPKdsbc8wJT-2">
          <mxGeometry y="22" width="142" height="56" as="geometry" />
        </mxCell>
        <mxCell id="4wmMbY1-laPKdsbc8wJT-4" value="" style="line;strokeWidth=1;fillColor=none;align=left;verticalAlign=middle;spacingTop=-1;spacingLeft=3;spacingRight=3;rotatable=0;labelPosition=right;points=[];portConstraint=eastwest;fontFamily=Helvetica;fontSize=12;fontColor=default;html=1;" vertex="1" parent="4wmMbY1-laPKdsbc8wJT-2">
          <mxGeometry y="78" width="142" height="8" as="geometry" />
        </mxCell>
        <mxCell id="4wmMbY1-laPKdsbc8wJT-5" value="obtenerUltimaJornada()" style="text;strokeColor=none;fillColor=none;align=left;verticalAlign=top;spacingLeft=4;spacingRight=4;overflow=hidden;rotatable=0;points=[[0,0.5],[1,0.5]];portConstraint=eastwest;fontFamily=Helvetica;fontSize=12;fontColor=default;html=1;" vertex="1" parent="4wmMbY1-laPKdsbc8wJT-2">
          <mxGeometry y="86" width="142" height="29" as="geometry" />
        </mxCell>
        <mxCell id="4wmMbY1-laPKdsbc8wJT-6" value="&lt;div style=&quot;text-align: left&quot;&gt;&lt;font color=&quot;#bdc1c6&quot; face=&quot;arial, sans-serif&quot;&gt;&lt;span style=&quot;font-size: 14px ; font-weight: 400 ; background-color: rgb(32 , 33 , 36)&quot;&gt;«singleton»&lt;/span&gt;&lt;/font&gt;&lt;/div&gt;Sesion&lt;br&gt;" style="swimlane;fontStyle=1;align=center;verticalAlign=top;childLayout=stackLayout;horizontal=1;startSize=42;horizontalStack=0;resizeParent=1;resizeParentMax=0;resizeLast=0;collapsible=1;marginBottom=0;fontFamily=Helvetica;fontSize=12;fontColor=default;fillColor=none;gradientColor=none;html=1;" vertex="1" parent="1">
          <mxGeometry x="398" y="581" width="160" height="102" as="geometry" />
        </mxCell>
        <mxCell id="4wmMbY1-laPKdsbc8wJT-7" value="&lt;br&gt;" style="text;strokeColor=none;fillColor=none;align=left;verticalAlign=top;spacingLeft=4;spacingRight=4;overflow=hidden;rotatable=0;points=[[0,0.5],[1,0.5]];portConstraint=eastwest;fontFamily=Helvetica;fontSize=12;fontColor=default;html=1;" vertex="1" parent="4wmMbY1-laPKdsbc8wJT-6">
          <mxGeometry y="42" width="160" height="26" as="geometry" />
        </mxCell>
        <mxCell id="4wmMbY1-laPKdsbc8wJT-8" value="" style="line;strokeWidth=1;fillColor=none;align=left;verticalAlign=middle;spacingTop=-1;spacingLeft=3;spacingRight=3;rotatable=0;labelPosition=right;points=[];portConstraint=eastwest;fontFamily=Helvetica;fontSize=12;fontColor=default;html=1;" vertex="1" parent="4wmMbY1-laPKdsbc8wJT-6">
          <mxGeometry y="68" width="160" height="8" as="geometry" />
        </mxCell>
        <mxCell id="4wmMbY1-laPKdsbc8wJT-9" value="obtenerEmpleado()" style="text;strokeColor=none;fillColor=none;align=left;verticalAlign=top;spacingLeft=4;spacingRight=4;overflow=hidden;rotatable=0;points=[[0,0.5],[1,0.5]];portConstraint=eastwest;fontFamily=Helvetica;fontSize=12;fontColor=default;html=1;" vertex="1" parent="4wmMbY1-laPKdsbc8wJT-6">
          <mxGeometry y="76" width="160" height="26" as="geometry" />
        </mxCell>
        <mxCell id="4wmMbY1-laPKdsbc8wJT-10" value="Usuario" style="swimlane;fontStyle=1;align=center;verticalAlign=top;childLayout=stackLayout;horizontal=1;startSize=26;horizontalStack=0;resizeParent=1;resizeParentMax=0;resizeLast=0;collapsible=1;marginBottom=0;fontFamily=Helvetica;fontSize=12;fontColor=default;fillColor=none;gradientColor=none;html=1;" vertex="1" parent="1">
          <mxGeometry x="169" y="583" width="160" height="98" as="geometry" />
        </mxCell>
        <mxCell id="4wmMbY1-laPKdsbc8wJT-11" value="usuario&lt;br&gt;contraseña" style="text;strokeColor=none;fillColor=none;align=left;verticalAlign=top;spacingLeft=4;spacingRight=4;overflow=hidden;rotatable=0;points=[[0,0.5],[1,0.5]];portConstraint=eastwest;fontFamily=Helvetica;fontSize=12;fontColor=default;html=1;" vertex="1" parent="4wmMbY1-laPKdsbc8wJT-10">
          <mxGeometry y="26" width="160" height="38" as="geometry" />
        </mxCell>
        <mxCell id="4wmMbY1-laPKdsbc8wJT-12" value="" style="line;strokeWidth=1;fillColor=none;align=left;verticalAlign=middle;spacingTop=-1;spacingLeft=3;spacingRight=3;rotatable=0;labelPosition=right;points=[];portConstraint=eastwest;fontFamily=Helvetica;fontSize=12;fontColor=default;html=1;" vertex="1" parent="4wmMbY1-laPKdsbc8wJT-10">
          <mxGeometry y="64" width="160" height="8" as="geometry" />
        </mxCell>
        <mxCell id="4wmMbY1-laPKdsbc8wJT-13" value="&lt;br&gt;" style="text;strokeColor=none;fillColor=none;align=left;verticalAlign=top;spacingLeft=4;spacingRight=4;overflow=hidden;rotatable=0;points=[[0,0.5],[1,0.5]];portConstraint=eastwest;fontFamily=Helvetica;fontSize=12;fontColor=default;html=1;" vertex="1" parent="4wmMbY1-laPKdsbc8wJT-10">
          <mxGeometry y="72" width="160" height="26" as="geometry" />
        </mxCell>
        <mxCell id="4wmMbY1-laPKdsbc8wJT-14" value="Repositorio" style="swimlane;fontStyle=1;align=center;verticalAlign=top;childLayout=stackLayout;horizontal=1;startSize=26;horizontalStack=0;resizeParent=1;resizeParentMax=0;resizeLast=0;collapsible=1;marginBottom=0;fontFamily=Helvetica;fontSize=12;fontColor=default;fillColor=none;gradientColor=none;html=1;" vertex="1" parent="1">
          <mxGeometry x="182.5" y="917" width="160" height="104" as="geometry" />
        </mxCell>
        <mxCell id="4wmMbY1-laPKdsbc8wJT-15" value="&lt;br&gt;" style="text;strokeColor=none;fillColor=none;align=left;verticalAlign=top;spacingLeft=4;spacingRight=4;overflow=hidden;rotatable=0;points=[[0,0.5],[1,0.5]];portConstraint=eastwest;fontFamily=Helvetica;fontSize=12;fontColor=default;html=1;" vertex="1" parent="4wmMbY1-laPKdsbc8wJT-14">
          <mxGeometry y="26" width="160" height="26" as="geometry" />
        </mxCell>
        <mxCell id="4wmMbY1-laPKdsbc8wJT-16" value="" style="line;strokeWidth=1;fillColor=none;align=left;verticalAlign=middle;spacingTop=-1;spacingLeft=3;spacingRight=3;rotatable=0;labelPosition=right;points=[];portConstraint=eastwest;fontFamily=Helvetica;fontSize=12;fontColor=default;html=1;" vertex="1" parent="4wmMbY1-laPKdsbc8wJT-14">
          <mxGeometry y="52" width="160" height="8" as="geometry" />
        </mxCell>
        <mxCell id="4wmMbY1-laPKdsbc8wJT-17" value="supervisorLibre(emp)&lt;br&gt;actualizar(op)" style="text;strokeColor=none;fillColor=none;align=left;verticalAlign=top;spacingLeft=4;spacingRight=4;overflow=hidden;rotatable=0;points=[[0,0.5],[1,0.5]];portConstraint=eastwest;fontFamily=Helvetica;fontSize=12;fontColor=default;html=1;" vertex="1" parent="4wmMbY1-laPKdsbc8wJT-14">
          <mxGeometry y="60" width="160" height="44" as="geometry" />
        </mxCell>
        <mxCell id="4wmMbY1-laPKdsbc8wJT-18" value="Modelo" style="swimlane;fontStyle=1;align=center;verticalAlign=top;childLayout=stackLayout;horizontal=1;startSize=26;horizontalStack=0;resizeParent=1;resizeParentMax=0;resizeLast=0;collapsible=1;marginBottom=0;fontFamily=Helvetica;fontSize=12;fontColor=default;fillColor=none;gradientColor=none;html=1;" vertex="1" parent="1">
          <mxGeometry x="648" y="941" width="160" height="107" as="geometry" />
        </mxCell>
        <mxCell id="4wmMbY1-laPKdsbc8wJT-19" value="sku&lt;br&gt;denominacion" style="text;strokeColor=none;fillColor=none;align=left;verticalAlign=top;spacingLeft=4;spacingRight=4;overflow=hidden;rotatable=0;points=[[0,0.5],[1,0.5]];portConstraint=eastwest;fontFamily=Helvetica;fontSize=12;fontColor=default;html=1;" vertex="1" parent="4wmMbY1-laPKdsbc8wJT-18">
          <mxGeometry y="26" width="160" height="47" as="geometry" />
        </mxCell>
        <mxCell id="4wmMbY1-laPKdsbc8wJT-20" value="" style="line;strokeWidth=1;fillColor=none;align=left;verticalAlign=middle;spacingTop=-1;spacingLeft=3;spacingRight=3;rotatable=0;labelPosition=right;points=[];portConstraint=eastwest;fontFamily=Helvetica;fontSize=12;fontColor=default;html=1;" vertex="1" parent="4wmMbY1-laPKdsbc8wJT-18">
          <mxGeometry y="73" width="160" height="8" as="geometry" />
        </mxCell>
        <mxCell id="4wmMbY1-laPKdsbc8wJT-21" value="&lt;br&gt;" style="text;strokeColor=none;fillColor=none;align=left;verticalAlign=top;spacingLeft=4;spacingRight=4;overflow=hidden;rotatable=0;points=[[0,0.5],[1,0.5]];portConstraint=eastwest;fontFamily=Helvetica;fontSize=12;fontColor=default;html=1;" vertex="1" parent="4wmMbY1-laPKdsbc8wJT-18">
          <mxGeometry y="81" width="160" height="26" as="geometry" />
        </mxCell>
        <mxCell id="4wmMbY1-laPKdsbc8wJT-22" value="Objetivo" style="swimlane;fontStyle=1;align=center;verticalAlign=top;childLayout=stackLayout;horizontal=1;startSize=26;horizontalStack=0;resizeParent=1;resizeParentMax=0;resizeLast=0;collapsible=1;marginBottom=0;fontFamily=Helvetica;fontSize=12;fontColor=default;fillColor=none;gradientColor=none;html=1;" vertex="1" parent="1">
          <mxGeometry x="1126" y="865" width="160" height="86" as="geometry" />
        </mxCell>
        <mxCell id="4wmMbY1-laPKdsbc8wJT-23" value="cantidadDe1ra" style="text;strokeColor=none;fillColor=none;align=left;verticalAlign=top;spacingLeft=4;spacingRight=4;overflow=hidden;rotatable=0;points=[[0,0.5],[1,0.5]];portConstraint=eastwest;fontFamily=Helvetica;fontSize=12;fontColor=default;html=1;" vertex="1" parent="4wmMbY1-laPKdsbc8wJT-22">
          <mxGeometry y="26" width="160" height="26" as="geometry" />
        </mxCell>
        <mxCell id="4wmMbY1-laPKdsbc8wJT-24" value="" style="line;strokeWidth=1;fillColor=none;align=left;verticalAlign=middle;spacingTop=-1;spacingLeft=3;spacingRight=3;rotatable=0;labelPosition=right;points=[];portConstraint=eastwest;fontFamily=Helvetica;fontSize=12;fontColor=default;html=1;" vertex="1" parent="4wmMbY1-laPKdsbc8wJT-22">
          <mxGeometry y="52" width="160" height="8" as="geometry" />
        </mxCell>
        <mxCell id="4wmMbY1-laPKdsbc8wJT-25" value="&lt;br&gt;" style="text;strokeColor=none;fillColor=none;align=left;verticalAlign=top;spacingLeft=4;spacingRight=4;overflow=hidden;rotatable=0;points=[[0,0.5],[1,0.5]];portConstraint=eastwest;fontFamily=Helvetica;fontSize=12;fontColor=default;html=1;" vertex="1" parent="4wmMbY1-laPKdsbc8wJT-22">
          <mxGeometry y="60" width="160" height="26" as="geometry" />
        </mxCell>
        <mxCell id="4wmMbY1-laPKdsbc8wJT-26" value="JornadaLaboral" style="swimlane;fontStyle=1;align=center;verticalAlign=top;childLayout=stackLayout;horizontal=1;startSize=26;horizontalStack=0;resizeParent=1;resizeParentMax=0;resizeLast=0;collapsible=1;marginBottom=0;fontFamily=Helvetica;fontSize=12;fontColor=default;fillColor=none;gradientColor=none;html=1;" vertex="1" parent="1">
          <mxGeometry x="869" y="872" width="198" height="154" as="geometry" />
        </mxCell>
        <mxCell id="4wmMbY1-laPKdsbc8wJT-27" value="horaDeApertura&lt;br&gt;horaDeCIerre&lt;br&gt;fecha" style="text;strokeColor=none;fillColor=none;align=left;verticalAlign=top;spacingLeft=4;spacingRight=4;overflow=hidden;rotatable=0;points=[[0,0.5],[1,0.5]];portConstraint=eastwest;fontFamily=Helvetica;fontSize=12;fontColor=default;html=1;" vertex="1" parent="4wmMbY1-laPKdsbc8wJT-26">
          <mxGeometry y="26" width="198" height="50" as="geometry" />
        </mxCell>
        <mxCell id="4wmMbY1-laPKdsbc8wJT-28" value="" style="line;strokeWidth=1;fillColor=none;align=left;verticalAlign=middle;spacingTop=-1;spacingLeft=3;spacingRight=3;rotatable=0;labelPosition=right;points=[];portConstraint=eastwest;fontFamily=Helvetica;fontSize=12;fontColor=default;html=1;" vertex="1" parent="4wmMbY1-laPKdsbc8wJT-26">
          <mxGeometry y="76" width="198" height="8" as="geometry" />
        </mxCell>
        <mxCell id="4wmMbY1-laPKdsbc8wJT-29" value="crear(objetivos[])&lt;br&gt;crear(hora, cantidad)&lt;br&gt;crear(hora, cantidad, defecto, pie)&lt;br&gt;guardar(hallazgo)" style="text;strokeColor=none;fillColor=none;align=left;verticalAlign=top;spacingLeft=4;spacingRight=4;overflow=hidden;rotatable=0;points=[[0,0.5],[1,0.5]];portConstraint=eastwest;fontFamily=Helvetica;fontSize=12;fontColor=default;html=1;" vertex="1" parent="4wmMbY1-laPKdsbc8wJT-26">
          <mxGeometry y="84" width="198" height="70" as="geometry" />
        </mxCell>
        <mxCell id="4wmMbY1-laPKdsbc8wJT-30" value="Linea" style="swimlane;fontStyle=1;align=center;verticalAlign=top;childLayout=stackLayout;horizontal=1;startSize=26;horizontalStack=0;resizeParent=1;resizeParentMax=0;resizeLast=0;collapsible=1;marginBottom=0;fontFamily=Helvetica;fontSize=12;fontColor=default;fillColor=none;gradientColor=none;html=1;" vertex="1" parent="1">
          <mxGeometry x="786" y="511" width="160" height="86" as="geometry" />
        </mxCell>
        <mxCell id="4wmMbY1-laPKdsbc8wJT-31" value="numero" style="text;strokeColor=none;fillColor=none;align=left;verticalAlign=top;spacingLeft=4;spacingRight=4;overflow=hidden;rotatable=0;points=[[0,0.5],[1,0.5]];portConstraint=eastwest;fontFamily=Helvetica;fontSize=12;fontColor=default;html=1;" vertex="1" parent="4wmMbY1-laPKdsbc8wJT-30">
          <mxGeometry y="26" width="160" height="26" as="geometry" />
        </mxCell>
        <mxCell id="4wmMbY1-laPKdsbc8wJT-32" value="" style="line;strokeWidth=1;fillColor=none;align=left;verticalAlign=middle;spacingTop=-1;spacingLeft=3;spacingRight=3;rotatable=0;labelPosition=right;points=[];portConstraint=eastwest;fontFamily=Helvetica;fontSize=12;fontColor=default;html=1;" vertex="1" parent="4wmMbY1-laPKdsbc8wJT-30">
          <mxGeometry y="52" width="160" height="8" as="geometry" />
        </mxCell>
        <mxCell id="4wmMbY1-laPKdsbc8wJT-33" value="&lt;br&gt;" style="text;strokeColor=none;fillColor=none;align=left;verticalAlign=top;spacingLeft=4;spacingRight=4;overflow=hidden;rotatable=0;points=[[0,0.5],[1,0.5]];portConstraint=eastwest;fontFamily=Helvetica;fontSize=12;fontColor=default;html=1;" vertex="1" parent="4wmMbY1-laPKdsbc8wJT-30">
          <mxGeometry y="60" width="160" height="26" as="geometry" />
        </mxCell>
        <mxCell id="4wmMbY1-laPKdsbc8wJT-34" value="Color" style="swimlane;fontStyle=1;align=center;verticalAlign=top;childLayout=stackLayout;horizontal=1;startSize=26;horizontalStack=0;resizeParent=1;resizeParentMax=0;resizeLast=0;collapsible=1;marginBottom=0;fontFamily=Helvetica;fontSize=12;fontColor=default;fillColor=none;gradientColor=none;html=1;" vertex="1" parent="1">
          <mxGeometry x="638" y="1076" width="160" height="100" as="geometry" />
        </mxCell>
        <mxCell id="4wmMbY1-laPKdsbc8wJT-35" value="codigoColor&lt;br&gt;descripcion" style="text;strokeColor=none;fillColor=none;align=left;verticalAlign=top;spacingLeft=4;spacingRight=4;overflow=hidden;rotatable=0;points=[[0,0.5],[1,0.5]];portConstraint=eastwest;fontFamily=Helvetica;fontSize=12;fontColor=default;html=1;" vertex="1" parent="4wmMbY1-laPKdsbc8wJT-34">
          <mxGeometry y="26" width="160" height="40" as="geometry" />
        </mxCell>
        <mxCell id="4wmMbY1-laPKdsbc8wJT-36" value="" style="line;strokeWidth=1;fillColor=none;align=left;verticalAlign=middle;spacingTop=-1;spacingLeft=3;spacingRight=3;rotatable=0;labelPosition=right;points=[];portConstraint=eastwest;fontFamily=Helvetica;fontSize=12;fontColor=default;html=1;" vertex="1" parent="4wmMbY1-laPKdsbc8wJT-34">
          <mxGeometry y="66" width="160" height="8" as="geometry" />
        </mxCell>
        <mxCell id="4wmMbY1-laPKdsbc8wJT-37" value="&lt;br&gt;" style="text;strokeColor=none;fillColor=none;align=left;verticalAlign=top;spacingLeft=4;spacingRight=4;overflow=hidden;rotatable=0;points=[[0,0.5],[1,0.5]];portConstraint=eastwest;fontFamily=Helvetica;fontSize=12;fontColor=default;html=1;" vertex="1" parent="4wmMbY1-laPKdsbc8wJT-34">
          <mxGeometry y="74" width="160" height="26" as="geometry" />
        </mxCell>
        <mxCell id="4wmMbY1-laPKdsbc8wJT-38" value="Turno" style="swimlane;fontStyle=1;align=center;verticalAlign=top;childLayout=stackLayout;horizontal=1;startSize=26;horizontalStack=0;resizeParent=1;resizeParentMax=0;resizeLast=0;collapsible=1;marginBottom=0;fontFamily=Helvetica;fontSize=12;fontColor=default;fillColor=none;gradientColor=none;html=1;" vertex="1" parent="1">
          <mxGeometry x="1170" y="978" width="160" height="114" as="geometry" />
        </mxCell>
        <mxCell id="4wmMbY1-laPKdsbc8wJT-39" value="nroTurno&lt;br&gt;horaInicio&lt;br&gt;horaFin" style="text;strokeColor=none;fillColor=none;align=left;verticalAlign=top;spacingLeft=4;spacingRight=4;overflow=hidden;rotatable=0;points=[[0,0.5],[1,0.5]];portConstraint=eastwest;fontFamily=Helvetica;fontSize=12;fontColor=default;html=1;" vertex="1" parent="4wmMbY1-laPKdsbc8wJT-38">
          <mxGeometry y="26" width="160" height="54" as="geometry" />
        </mxCell>
        <mxCell id="4wmMbY1-laPKdsbc8wJT-40" value="" style="line;strokeWidth=1;fillColor=none;align=left;verticalAlign=middle;spacingTop=-1;spacingLeft=3;spacingRight=3;rotatable=0;labelPosition=right;points=[];portConstraint=eastwest;fontFamily=Helvetica;fontSize=12;fontColor=default;html=1;" vertex="1" parent="4wmMbY1-laPKdsbc8wJT-38">
          <mxGeometry y="80" width="160" height="8" as="geometry" />
        </mxCell>
        <mxCell id="4wmMbY1-laPKdsbc8wJT-41" value="&lt;br&gt;" style="text;strokeColor=none;fillColor=none;align=left;verticalAlign=top;spacingLeft=4;spacingRight=4;overflow=hidden;rotatable=0;points=[[0,0.5],[1,0.5]];portConstraint=eastwest;fontFamily=Helvetica;fontSize=12;fontColor=default;html=1;" vertex="1" parent="4wmMbY1-laPKdsbc8wJT-38">
          <mxGeometry y="88" width="160" height="26" as="geometry" />
        </mxCell>
        <mxCell id="4wmMbY1-laPKdsbc8wJT-42" value="Hallazgo" style="swimlane;fontStyle=1;align=center;verticalAlign=top;childLayout=stackLayout;horizontal=1;startSize=26;horizontalStack=0;resizeParent=1;resizeParentMax=0;resizeLast=0;collapsible=1;marginBottom=0;fontFamily=Helvetica;fontSize=12;fontColor=default;fillColor=none;gradientColor=none;html=1;" vertex="1" parent="1">
          <mxGeometry x="946" y="1126" width="160" height="101" as="geometry" />
        </mxCell>
        <mxCell id="4wmMbY1-laPKdsbc8wJT-43" value="hora&lt;br&gt;cantidad" style="text;strokeColor=none;fillColor=none;align=left;verticalAlign=top;spacingLeft=4;spacingRight=4;overflow=hidden;rotatable=0;points=[[0,0.5],[1,0.5]];portConstraint=eastwest;fontFamily=Helvetica;fontSize=12;fontColor=default;html=1;" vertex="1" parent="4wmMbY1-laPKdsbc8wJT-42">
          <mxGeometry y="26" width="160" height="41" as="geometry" />
        </mxCell>
        <mxCell id="4wmMbY1-laPKdsbc8wJT-44" value="" style="line;strokeWidth=1;fillColor=none;align=left;verticalAlign=middle;spacingTop=-1;spacingLeft=3;spacingRight=3;rotatable=0;labelPosition=right;points=[];portConstraint=eastwest;fontFamily=Helvetica;fontSize=12;fontColor=default;html=1;" vertex="1" parent="4wmMbY1-laPKdsbc8wJT-42">
          <mxGeometry y="67" width="160" height="8" as="geometry" />
        </mxCell>
        <mxCell id="4wmMbY1-laPKdsbc8wJT-45" value="&lt;br&gt;" style="text;strokeColor=none;fillColor=none;align=left;verticalAlign=top;spacingLeft=4;spacingRight=4;overflow=hidden;rotatable=0;points=[[0,0.5],[1,0.5]];portConstraint=eastwest;fontFamily=Helvetica;fontSize=12;fontColor=default;html=1;" vertex="1" parent="4wmMbY1-laPKdsbc8wJT-42">
          <mxGeometry y="75" width="160" height="26" as="geometry" />
        </mxCell>
        <mxCell id="4wmMbY1-laPKdsbc8wJT-46" value="Defecto" style="swimlane;fontStyle=1;align=center;verticalAlign=top;childLayout=stackLayout;horizontal=1;startSize=26;horizontalStack=0;resizeParent=1;resizeParentMax=0;resizeLast=0;collapsible=1;marginBottom=0;fontFamily=Helvetica;fontSize=12;fontColor=default;fillColor=none;gradientColor=none;html=1;" vertex="1" parent="1">
          <mxGeometry x="1170" y="1101" width="160" height="156" as="geometry" />
        </mxCell>
        <mxCell id="4wmMbY1-laPKdsbc8wJT-47" value="tipo&lt;br&gt;pie&lt;br&gt;totalPorPie&lt;br&gt;acumulado&lt;br&gt;horaDeRegistro&lt;br&gt;fechaDeRegistro" style="text;strokeColor=none;fillColor=none;align=left;verticalAlign=top;spacingLeft=4;spacingRight=4;overflow=hidden;rotatable=0;points=[[0,0.5],[1,0.5]];portConstraint=eastwest;fontFamily=Helvetica;fontSize=12;fontColor=default;html=1;" vertex="1" parent="4wmMbY1-laPKdsbc8wJT-46">
          <mxGeometry y="26" width="160" height="96" as="geometry" />
        </mxCell>
        <mxCell id="4wmMbY1-laPKdsbc8wJT-48" value="" style="line;strokeWidth=1;fillColor=none;align=left;verticalAlign=middle;spacingTop=-1;spacingLeft=3;spacingRight=3;rotatable=0;labelPosition=right;points=[];portConstraint=eastwest;fontFamily=Helvetica;fontSize=12;fontColor=default;html=1;" vertex="1" parent="4wmMbY1-laPKdsbc8wJT-46">
          <mxGeometry y="122" width="160" height="8" as="geometry" />
        </mxCell>
        <mxCell id="4wmMbY1-laPKdsbc8wJT-49" value="&lt;br&gt;" style="text;strokeColor=none;fillColor=none;align=left;verticalAlign=top;spacingLeft=4;spacingRight=4;overflow=hidden;rotatable=0;points=[[0,0.5],[1,0.5]];portConstraint=eastwest;fontFamily=Helvetica;fontSize=12;fontColor=default;html=1;" vertex="1" parent="4wmMbY1-laPKdsbc8wJT-46">
          <mxGeometry y="130" width="160" height="26" as="geometry" />
        </mxCell>
        <mxCell id="4wmMbY1-laPKdsbc8wJT-55" value="IniciarOPControlador" style="swimlane;fontStyle=1;align=center;verticalAlign=top;childLayout=stackLayout;horizontal=1;startSize=26;horizontalStack=0;resizeParent=1;resizeParentMax=0;resizeLast=0;collapsible=1;marginBottom=0;fontFamily=Helvetica;fontSize=12;fontColor=default;fillColor=none;gradientColor=none;html=1;" vertex="1" parent="1">
          <mxGeometry x="436" y="889" width="191" height="99" as="geometry" />
        </mxCell>
        <mxCell id="4wmMbY1-laPKdsbc8wJT-56" value="&lt;br&gt;" style="text;strokeColor=none;fillColor=none;align=left;verticalAlign=top;spacingLeft=4;spacingRight=4;overflow=hidden;rotatable=0;points=[[0,0.5],[1,0.5]];portConstraint=eastwest;fontFamily=Helvetica;fontSize=12;fontColor=default;html=1;" vertex="1" parent="4wmMbY1-laPKdsbc8wJT-55">
          <mxGeometry y="26" width="191" height="26" as="geometry" />
        </mxCell>
        <mxCell id="4wmMbY1-laPKdsbc8wJT-57" value="" style="line;strokeWidth=1;fillColor=none;align=left;verticalAlign=middle;spacingTop=-1;spacingLeft=3;spacingRight=3;rotatable=0;labelPosition=right;points=[];portConstraint=eastwest;fontFamily=Helvetica;fontSize=12;fontColor=default;html=1;" vertex="1" parent="4wmMbY1-laPKdsbc8wJT-55">
          <mxGeometry y="52" width="191" height="8" as="geometry" />
        </mxCell>
        <mxCell id="4wmMbY1-laPKdsbc8wJT-58" value="asignarModelo(modelo)&lt;br&gt;asociarDatos(&lt;span style=&quot;text-align: center&quot;&gt;color,jornada,linea)&lt;/span&gt;" style="text;strokeColor=none;fillColor=none;align=left;verticalAlign=top;spacingLeft=4;spacingRight=4;overflow=hidden;rotatable=0;points=[[0,0.5],[1,0.5]];portConstraint=eastwest;fontFamily=Helvetica;fontSize=12;fontColor=default;html=1;" vertex="1" parent="4wmMbY1-laPKdsbc8wJT-55">
          <mxGeometry y="60" width="191" height="39" as="geometry" />
        </mxCell>
        <mxCell id="4wmMbY1-laPKdsbc8wJT-59" value="InspeccionarCalzadoControlador" style="swimlane;fontStyle=1;align=center;verticalAlign=top;childLayout=stackLayout;horizontal=1;startSize=26;horizontalStack=0;resizeParent=1;resizeParentMax=0;resizeLast=0;collapsible=1;marginBottom=0;fontFamily=Helvetica;fontSize=12;fontColor=default;fillColor=none;gradientColor=none;html=1;" vertex="1" parent="1">
          <mxGeometry x="573" y="1210" width="255" height="140" as="geometry" />
        </mxCell>
        <mxCell id="4wmMbY1-laPKdsbc8wJT-60" value="&lt;br&gt;" style="text;strokeColor=none;fillColor=none;align=left;verticalAlign=top;spacingLeft=4;spacingRight=4;overflow=hidden;rotatable=0;points=[[0,0.5],[1,0.5]];portConstraint=eastwest;fontFamily=Helvetica;fontSize=12;fontColor=default;html=1;" vertex="1" parent="4wmMbY1-laPKdsbc8wJT-59">
          <mxGeometry y="26" width="255" height="26" as="geometry" />
        </mxCell>
        <mxCell id="4wmMbY1-laPKdsbc8wJT-61" value="" style="line;strokeWidth=1;fillColor=none;align=left;verticalAlign=middle;spacingTop=-1;spacingLeft=3;spacingRight=3;rotatable=0;labelPosition=right;points=[];portConstraint=eastwest;fontFamily=Helvetica;fontSize=12;fontColor=default;html=1;" vertex="1" parent="4wmMbY1-laPKdsbc8wJT-59">
          <mxGeometry y="52" width="255" height="8" as="geometry" />
        </mxCell>
        <mxCell id="4wmMbY1-laPKdsbc8wJT-62" value="registrarParDePrimera(hora, cantidad)&lt;br&gt;registrarDefecto(hora, cantidad, defecto, pie)&lt;br&gt;actualizarOP(op)&lt;br&gt;obtenerTotalPrimera(hora)&lt;br&gt;obtenerTotalDefectos(hora)" style="text;strokeColor=none;fillColor=none;align=left;verticalAlign=top;spacingLeft=4;spacingRight=4;overflow=hidden;rotatable=0;points=[[0,0.5],[1,0.5]];portConstraint=eastwest;fontFamily=Helvetica;fontSize=12;fontColor=default;html=1;" vertex="1" parent="4wmMbY1-laPKdsbc8wJT-59">
          <mxGeometry y="60" width="255" height="80" as="geometry" />
        </mxCell>
        <mxCell id="4wmMbY1-laPKdsbc8wJT-63" value="ControladorAutenticarUsuario" style="swimlane;fontStyle=1;align=center;verticalAlign=top;childLayout=stackLayout;horizontal=1;startSize=26;horizontalStack=0;resizeParent=1;resizeParentMax=0;resizeLast=0;collapsible=1;marginBottom=0;fontFamily=Helvetica;fontSize=12;fontColor=default;fillColor=none;gradientColor=none;html=1;" vertex="1" parent="1">
          <mxGeometry x="148" y="768" width="229" height="101" as="geometry" />
        </mxCell>
        <mxCell id="4wmMbY1-laPKdsbc8wJT-64" value="&lt;br&gt;" style="text;strokeColor=none;fillColor=none;align=left;verticalAlign=top;spacingLeft=4;spacingRight=4;overflow=hidden;rotatable=0;points=[[0,0.5],[1,0.5]];portConstraint=eastwest;fontFamily=Helvetica;fontSize=12;fontColor=default;html=1;" vertex="1" parent="4wmMbY1-laPKdsbc8wJT-63">
          <mxGeometry y="26" width="229" height="26" as="geometry" />
        </mxCell>
        <mxCell id="4wmMbY1-laPKdsbc8wJT-65" value="" style="line;strokeWidth=1;fillColor=none;align=left;verticalAlign=middle;spacingTop=-1;spacingLeft=3;spacingRight=3;rotatable=0;labelPosition=right;points=[];portConstraint=eastwest;fontFamily=Helvetica;fontSize=12;fontColor=default;html=1;" vertex="1" parent="4wmMbY1-laPKdsbc8wJT-63">
          <mxGeometry y="52" width="229" height="8" as="geometry" />
        </mxCell>
        <mxCell id="4wmMbY1-laPKdsbc8wJT-66" value="obtenerUsuario(usuario)&lt;br&gt;validar(contraseña)&lt;br&gt;" style="text;strokeColor=none;fillColor=none;align=left;verticalAlign=top;spacingLeft=4;spacingRight=4;overflow=hidden;rotatable=0;points=[[0,0.5],[1,0.5]];portConstraint=eastwest;fontFamily=Helvetica;fontSize=12;fontColor=default;html=1;" vertex="1" parent="4wmMbY1-laPKdsbc8wJT-63">
          <mxGeometry y="60" width="229" height="41" as="geometry" />
        </mxCell>
        <mxCell id="4wmMbY1-laPKdsbc8wJT-114" value="" style="endArrow=open;endFill=1;endSize=12;html=1;rounded=0;fontFamily=Helvetica;fontSize=12;fontColor=default;" edge="1" parent="4wmMbY1-laPKdsbc8wJT-63" target="4wmMbY1-laPKdsbc8wJT-6">
          <mxGeometry width="160" relative="1" as="geometry">
            <mxPoint x="138" y="-1" as="sourcePoint" />
            <mxPoint x="298" y="-1" as="targetPoint" />
          </mxGeometry>
        </mxCell>
        <mxCell id="4wmMbY1-laPKdsbc8wJT-67" value="ControladorAsociarSupervisoraOP" style="swimlane;fontStyle=1;align=center;verticalAlign=top;childLayout=stackLayout;horizontal=1;startSize=26;horizontalStack=0;resizeParent=1;resizeParentMax=0;resizeLast=0;collapsible=1;marginBottom=0;fontFamily=Helvetica;fontSize=12;fontColor=default;fillColor=none;gradientColor=none;html=1;" vertex="1" parent="1">
          <mxGeometry x="500" y="691" width="219" height="117" as="geometry" />
        </mxCell>
        <mxCell id="4wmMbY1-laPKdsbc8wJT-68" value="&lt;br&gt;" style="text;strokeColor=none;fillColor=none;align=left;verticalAlign=top;spacingLeft=4;spacingRight=4;overflow=hidden;rotatable=0;points=[[0,0.5],[1,0.5]];portConstraint=eastwest;fontFamily=Helvetica;fontSize=12;fontColor=default;html=1;" vertex="1" parent="4wmMbY1-laPKdsbc8wJT-67">
          <mxGeometry y="26" width="219" height="26" as="geometry" />
        </mxCell>
        <mxCell id="4wmMbY1-laPKdsbc8wJT-69" value="" style="line;strokeWidth=1;fillColor=none;align=left;verticalAlign=middle;spacingTop=-1;spacingLeft=3;spacingRight=3;rotatable=0;labelPosition=right;points=[];portConstraint=eastwest;fontFamily=Helvetica;fontSize=12;fontColor=default;html=1;" vertex="1" parent="4wmMbY1-laPKdsbc8wJT-67">
          <mxGeometry y="52" width="219" height="8" as="geometry" />
        </mxCell>
        <mxCell id="4wmMbY1-laPKdsbc8wJT-70" value="supervisorLibre(emp):bool&lt;br&gt;asociarSupervisor(emp, nroLinea)&lt;br&gt;abandonarSupervisor(emp. nroLinea)" style="text;strokeColor=none;fillColor=none;align=left;verticalAlign=top;spacingLeft=4;spacingRight=4;overflow=hidden;rotatable=0;points=[[0,0.5],[1,0.5]];portConstraint=eastwest;fontFamily=Helvetica;fontSize=12;fontColor=default;html=1;" vertex="1" parent="4wmMbY1-laPKdsbc8wJT-67">
          <mxGeometry y="60" width="219" height="57" as="geometry" />
        </mxCell>
        <mxCell id="4wmMbY1-laPKdsbc8wJT-96" value="&lt;div style=&quot;text-align: left&quot;&gt;&lt;font color=&quot;#bdc1c6&quot; face=&quot;arial, sans-serif&quot;&gt;&lt;span style=&quot;font-size: 14px ; font-weight: 400 ; background-color: rgb(32 , 33 , 36)&quot;&gt;«enum»&lt;/span&gt;&lt;/font&gt;&lt;/div&gt;EstadoOP" style="swimlane;fontStyle=1;align=center;verticalAlign=top;childLayout=stackLayout;horizontal=1;startSize=40;horizontalStack=0;resizeParent=1;resizeParentMax=0;resizeLast=0;collapsible=1;marginBottom=0;fontFamily=Helvetica;fontSize=12;fontColor=default;fillColor=none;gradientColor=none;html=1;" vertex="1" parent="1">
          <mxGeometry x="996" y="603" width="160" height="126" as="geometry" />
        </mxCell>
        <mxCell id="4wmMbY1-laPKdsbc8wJT-97" value="activa&lt;br&gt;pausada&lt;br&gt;finalizada" style="text;strokeColor=none;fillColor=none;align=left;verticalAlign=top;spacingLeft=4;spacingRight=4;overflow=hidden;rotatable=0;points=[[0,0.5],[1,0.5]];portConstraint=eastwest;fontFamily=Helvetica;fontSize=12;fontColor=default;html=1;" vertex="1" parent="4wmMbY1-laPKdsbc8wJT-96">
          <mxGeometry y="40" width="160" height="52" as="geometry" />
        </mxCell>
        <mxCell id="4wmMbY1-laPKdsbc8wJT-98" value="" style="line;strokeWidth=1;fillColor=none;align=left;verticalAlign=middle;spacingTop=-1;spacingLeft=3;spacingRight=3;rotatable=0;labelPosition=right;points=[];portConstraint=eastwest;fontFamily=Helvetica;fontSize=12;fontColor=default;html=1;" vertex="1" parent="4wmMbY1-laPKdsbc8wJT-96">
          <mxGeometry y="92" width="160" height="8" as="geometry" />
        </mxCell>
        <mxCell id="4wmMbY1-laPKdsbc8wJT-99" value="&lt;br&gt;" style="text;strokeColor=none;fillColor=none;align=left;verticalAlign=top;spacingLeft=4;spacingRight=4;overflow=hidden;rotatable=0;points=[[0,0.5],[1,0.5]];portConstraint=eastwest;fontFamily=Helvetica;fontSize=12;fontColor=default;html=1;" vertex="1" parent="4wmMbY1-laPKdsbc8wJT-96">
          <mxGeometry y="100" width="160" height="26" as="geometry" />
        </mxCell>
        <mxCell id="4wmMbY1-laPKdsbc8wJT-101" value="" style="endArrow=open;endFill=1;endSize=12;html=1;rounded=0;fontFamily=Helvetica;fontSize=12;fontColor=default;" edge="1" parent="1" source="4wmMbY1-laPKdsbc8wJT-55" target="4wmMbY1-laPKdsbc8wJT-2">
          <mxGeometry width="160" relative="1" as="geometry">
            <mxPoint x="687" y="811" as="sourcePoint" />
            <mxPoint x="847" y="811" as="targetPoint" />
            <Array as="points">
              <mxPoint x="701" y="875" />
            </Array>
          </mxGeometry>
        </mxCell>
        <mxCell id="4wmMbY1-laPKdsbc8wJT-102" value="" style="endArrow=open;endFill=1;endSize=12;html=1;rounded=0;fontFamily=Helvetica;fontSize=12;fontColor=default;" edge="1" parent="1" source="4wmMbY1-laPKdsbc8wJT-55" target="4wmMbY1-laPKdsbc8wJT-14">
          <mxGeometry width="160" relative="1" as="geometry">
            <mxPoint x="157" y="746" as="sourcePoint" />
            <mxPoint x="317" y="746" as="targetPoint" />
          </mxGeometry>
        </mxCell>
        <mxCell id="4wmMbY1-laPKdsbc8wJT-103" value="" style="endArrow=open;endFill=1;endSize=12;html=1;rounded=0;fontFamily=Helvetica;fontSize=12;fontColor=default;" edge="1" parent="1" source="4wmMbY1-laPKdsbc8wJT-2" target="4wmMbY1-laPKdsbc8wJT-30">
          <mxGeometry width="160" relative="1" as="geometry">
            <mxPoint x="914" y="657" as="sourcePoint" />
            <mxPoint x="1074" y="657" as="targetPoint" />
          </mxGeometry>
        </mxCell>
        <mxCell id="4wmMbY1-laPKdsbc8wJT-104" value="" style="endArrow=open;endFill=1;endSize=12;html=1;rounded=0;fontFamily=Helvetica;fontSize=12;fontColor=default;entryX=0;entryY=0.25;entryDx=0;entryDy=0;" edge="1" parent="1" source="4wmMbY1-laPKdsbc8wJT-3" target="4wmMbY1-laPKdsbc8wJT-96">
          <mxGeometry width="160" relative="1" as="geometry">
            <mxPoint x="933" y="668" as="sourcePoint" />
            <mxPoint x="1093" y="668" as="targetPoint" />
          </mxGeometry>
        </mxCell>
        <mxCell id="4wmMbY1-laPKdsbc8wJT-111" value="" style="endArrow=open;endFill=1;endSize=12;html=1;rounded=0;fontFamily=Helvetica;fontSize=12;fontColor=default;" edge="1" parent="1" source="4wmMbY1-laPKdsbc8wJT-26" target="4wmMbY1-laPKdsbc8wJT-22">
          <mxGeometry width="160" relative="1" as="geometry">
            <mxPoint x="962" y="931" as="sourcePoint" />
            <mxPoint x="1122" y="931" as="targetPoint" />
          </mxGeometry>
        </mxCell>
        <mxCell id="4wmMbY1-laPKdsbc8wJT-110" value="" style="endArrow=open;endFill=1;endSize=12;html=1;rounded=0;fontFamily=Helvetica;fontSize=12;fontColor=default;" edge="1" parent="1" source="4wmMbY1-laPKdsbc8wJT-18" target="4wmMbY1-laPKdsbc8wJT-34">
          <mxGeometry width="160" relative="1" as="geometry">
            <mxPoint x="810" y="1027" as="sourcePoint" />
            <mxPoint x="967" y="1027" as="targetPoint" />
          </mxGeometry>
        </mxCell>
        <mxCell id="4wmMbY1-laPKdsbc8wJT-112" value="" style="endArrow=open;endFill=1;endSize=12;html=1;rounded=0;fontFamily=Helvetica;fontSize=12;fontColor=default;" edge="1" parent="1" source="4wmMbY1-laPKdsbc8wJT-2" target="4wmMbY1-laPKdsbc8wJT-26">
          <mxGeometry width="160" relative="1" as="geometry">
            <mxPoint x="833" y="731" as="sourcePoint" />
            <mxPoint x="993" y="731" as="targetPoint" />
          </mxGeometry>
        </mxCell>
        <mxCell id="4wmMbY1-laPKdsbc8wJT-113" value="" style="endArrow=open;endFill=1;endSize=12;html=1;rounded=0;fontFamily=Helvetica;fontSize=12;fontColor=default;exitX=0.188;exitY=1.082;exitDx=0;exitDy=0;exitPerimeter=0;" edge="1" parent="1" source="4wmMbY1-laPKdsbc8wJT-5" target="4wmMbY1-laPKdsbc8wJT-18">
          <mxGeometry width="160" relative="1" as="geometry">
            <mxPoint x="837" y="709" as="sourcePoint" />
            <mxPoint x="997" y="709" as="targetPoint" />
          </mxGeometry>
        </mxCell>
        <mxCell id="4wmMbY1-laPKdsbc8wJT-109" value="" style="endArrow=open;endFill=1;endSize=12;html=1;rounded=0;fontFamily=Helvetica;fontSize=12;fontColor=default;" edge="1" parent="1" source="4wmMbY1-laPKdsbc8wJT-6" target="4wmMbY1-laPKdsbc8wJT-10">
          <mxGeometry width="160" relative="1" as="geometry">
            <mxPoint x="546.5" y="620" as="sourcePoint" />
            <mxPoint x="706.5" y="620" as="targetPoint" />
          </mxGeometry>
        </mxCell>
        <mxCell id="4wmMbY1-laPKdsbc8wJT-115" value="" style="endArrow=open;endFill=1;endSize=12;html=1;rounded=0;fontFamily=Helvetica;fontSize=12;fontColor=default;" edge="1" parent="1" source="4wmMbY1-laPKdsbc8wJT-63" target="4wmMbY1-laPKdsbc8wJT-10">
          <mxGeometry width="160" relative="1" as="geometry">
            <mxPoint x="203" y="772" as="sourcePoint" />
            <mxPoint x="363" y="772" as="targetPoint" />
          </mxGeometry>
        </mxCell>
        <mxCell id="4wmMbY1-laPKdsbc8wJT-116" value="" style="endArrow=open;endFill=1;endSize=12;html=1;rounded=0;fontFamily=Helvetica;fontSize=12;fontColor=default;" edge="1" parent="1" source="4wmMbY1-laPKdsbc8wJT-63" target="4wmMbY1-laPKdsbc8wJT-14">
          <mxGeometry width="160" relative="1" as="geometry">
            <mxPoint x="350" y="791" as="sourcePoint" />
            <mxPoint x="510" y="791" as="targetPoint" />
          </mxGeometry>
        </mxCell>
        <mxCell id="4wmMbY1-laPKdsbc8wJT-118" value="" style="endArrow=open;endFill=1;endSize=12;html=1;rounded=0;fontFamily=Helvetica;fontSize=12;fontColor=default;" edge="1" parent="1" source="4wmMbY1-laPKdsbc8wJT-67" target="4wmMbY1-laPKdsbc8wJT-2">
          <mxGeometry width="160" relative="1" as="geometry">
            <mxPoint x="454" y="1018" as="sourcePoint" />
            <mxPoint x="614" y="1018" as="targetPoint" />
            <Array as="points" />
          </mxGeometry>
        </mxCell>
        <mxCell id="4wmMbY1-laPKdsbc8wJT-120" value="" style="endArrow=open;endFill=1;endSize=12;html=1;rounded=0;fontFamily=Helvetica;fontSize=12;fontColor=default;" edge="1" parent="1" source="4wmMbY1-laPKdsbc8wJT-67" target="4wmMbY1-laPKdsbc8wJT-6">
          <mxGeometry width="160" relative="1" as="geometry">
            <mxPoint x="402" y="997" as="sourcePoint" />
            <mxPoint x="562" y="997" as="targetPoint" />
            <Array as="points">
              <mxPoint x="471" y="745" />
            </Array>
          </mxGeometry>
        </mxCell>
        <mxCell id="4wmMbY1-laPKdsbc8wJT-121" value="" style="endArrow=open;endFill=1;endSize=12;html=1;rounded=0;fontFamily=Helvetica;fontSize=12;fontColor=default;" edge="1" parent="1" source="4wmMbY1-laPKdsbc8wJT-67" target="4wmMbY1-laPKdsbc8wJT-14">
          <mxGeometry width="160" relative="1" as="geometry">
            <mxPoint x="390" y="1035" as="sourcePoint" />
            <mxPoint x="550" y="1035" as="targetPoint" />
          </mxGeometry>
        </mxCell>
        <mxCell id="4wmMbY1-laPKdsbc8wJT-122" value="" style="endArrow=open;endFill=1;endSize=12;html=1;rounded=0;fontFamily=Helvetica;fontSize=12;fontColor=default;" edge="1" parent="1" source="4wmMbY1-laPKdsbc8wJT-26" target="4wmMbY1-laPKdsbc8wJT-38">
          <mxGeometry width="160" relative="1" as="geometry">
            <mxPoint x="1032" y="934" as="sourcePoint" />
            <mxPoint x="1192" y="934" as="targetPoint" />
          </mxGeometry>
        </mxCell>
        <mxCell id="4wmMbY1-laPKdsbc8wJT-123" value="" style="endArrow=open;endFill=1;endSize=12;html=1;rounded=0;fontFamily=Helvetica;fontSize=12;fontColor=default;" edge="1" parent="1" source="4wmMbY1-laPKdsbc8wJT-59" target="4wmMbY1-laPKdsbc8wJT-14">
          <mxGeometry width="160" relative="1" as="geometry">
            <mxPoint x="386" y="1215" as="sourcePoint" />
            <mxPoint x="546" y="1215" as="targetPoint" />
            <Array as="points">
              <mxPoint x="369" y="1150" />
            </Array>
          </mxGeometry>
        </mxCell>
        <mxCell id="4wmMbY1-laPKdsbc8wJT-124" value="" style="endArrow=open;endFill=1;endSize=12;html=1;rounded=0;fontFamily=Helvetica;fontSize=12;fontColor=default;" edge="1" parent="1" source="4wmMbY1-laPKdsbc8wJT-59" target="4wmMbY1-laPKdsbc8wJT-2">
          <mxGeometry width="160" relative="1" as="geometry">
            <mxPoint x="588" y="1237" as="sourcePoint" />
            <mxPoint x="748" y="1237" as="targetPoint" />
            <Array as="points">
              <mxPoint x="826" y="1172" />
            </Array>
          </mxGeometry>
        </mxCell>
        <mxCell id="4wmMbY1-laPKdsbc8wJT-125" value="" style="endArrow=open;endFill=1;endSize=12;html=1;rounded=0;fontFamily=Helvetica;fontSize=12;fontColor=default;" edge="1" parent="1" source="4wmMbY1-laPKdsbc8wJT-59" target="4wmMbY1-laPKdsbc8wJT-26">
          <mxGeometry width="160" relative="1" as="geometry">
            <mxPoint x="760" y="1262" as="sourcePoint" />
            <mxPoint x="920" y="1262" as="targetPoint" />
            <Array as="points">
              <mxPoint x="862" y="1306" />
            </Array>
          </mxGeometry>
        </mxCell>
        <mxCell id="4wmMbY1-laPKdsbc8wJT-126" value="" style="endArrow=open;endFill=1;endSize=12;html=1;rounded=0;fontFamily=Helvetica;fontSize=12;fontColor=default;" edge="1" parent="1" source="4wmMbY1-laPKdsbc8wJT-26" target="4wmMbY1-laPKdsbc8wJT-42">
          <mxGeometry width="160" relative="1" as="geometry">
            <mxPoint x="992" y="891" as="sourcePoint" />
            <mxPoint x="1152" y="891" as="targetPoint" />
          </mxGeometry>
        </mxCell>
        <mxCell id="4wmMbY1-laPKdsbc8wJT-127" value="" style="endArrow=open;endFill=1;endSize=12;html=1;rounded=0;fontFamily=Helvetica;fontSize=12;fontColor=default;" edge="1" parent="1" source="4wmMbY1-laPKdsbc8wJT-42" target="4wmMbY1-laPKdsbc8wJT-46">
          <mxGeometry width="160" relative="1" as="geometry">
            <mxPoint x="1087" y="1141" as="sourcePoint" />
            <mxPoint x="1247" y="1141" as="targetPoint" />
          </mxGeometry>
        </mxCell>
        <mxCell id="4wmMbY1-laPKdsbc8wJT-107" value="" style="endArrow=open;endFill=1;endSize=12;html=1;rounded=0;fontFamily=Helvetica;fontSize=12;fontColor=default;" edge="1" parent="1" source="4wmMbY1-laPKdsbc8wJT-55" target="4wmMbY1-laPKdsbc8wJT-6">
          <mxGeometry width="160" relative="1" as="geometry">
            <mxPoint x="441" y="885" as="sourcePoint" />
            <mxPoint x="601" y="885" as="targetPoint" />
            <Array as="points">
              <mxPoint x="406" y="910" />
            </Array>
          </mxGeometry>
        </mxCell>
      </root>
    </mxGraphModel>
  </diagram>
</mxfile>
